<!DOCTYPE svg PUBLIC "-//W3C//DTD SVG 1.1//EN" "http://www.w3.org/Graphics/SVG/1.1/DTD/svg11.dtd">
<!-- Uploaded to: SVG Repo, www.svgrepo.com, Transformed by: SVG Repo Mixer Tools -->
<svg fill="#274E30" height="800px" width="800px" version="1.1" id="Capa_1" xmlns="http://www.w3.org/2000/svg" xmlns:xlink="http://www.w3.org/1999/xlink" viewBox="0 0 495.863 495.863" xml:space="preserve" stroke="#274E30">
<g id="SVGRepo_bgCarrier" stroke-width="0"/>
<g id="SVGRepo_tracerCarrier" stroke-linecap="round" stroke-linejoin="round"/>
<g id="SVGRepo_iconCarrier"> <g> <g id="Icons_44_"> <g> <path d="M247.927,130.153c15.148,0,27.51-12.343,27.51-27.506s-12.361-27.503-27.51-27.503c-15.177,0-27.503,12.34-27.503,27.503 S232.75,130.153,247.927,130.153z"/> <path d="M407.965,151.09L277.966,12.972C270.182,4.694,259.299,0,247.927,0c-11.383,0-22.248,4.693-30.049,12.972l-130,138.118 c-7.198,7.646-11.204,17.765-11.204,28.273v275.243c0,22.785,18.453,41.257,41.259,41.257h259.995 c22.771,0,41.26-18.472,41.26-41.257V179.364C419.188,168.855,415.163,158.736,407.965,151.09z M247.927,50.234 c28.899,0,52.419,23.514,52.419,52.413s-23.52,52.416-52.419,52.416s-52.412-23.517-52.412-52.416S219.028,50.234,247.927,50.234 z M355.484,310.499l-40.736,39.707c-2.788,2.726-4.053,6.641-3.41,10.478l9.619,56.086c0.764,4.436-1.053,8.92-4.703,11.573 c-3.65,2.645-8.479,3.001-12.469,0.899l-50.355-26.474c-3.455-1.817-7.576-1.817-11.015,0l-50.371,26.474 c-3.991,2.102-8.819,1.75-12.453-0.899c-3.65-2.645-5.484-7.138-4.702-11.573l9.601-56.086c0.678-3.837-0.604-7.752-3.393-10.478 l-40.754-39.707c-3.208-3.148-4.38-7.851-2.983-12.131c1.397-4.283,5.093-7.404,9.555-8.051l56.305-8.185 c3.847-0.558,7.187-2.975,8.904-6.47l25.187-51.019c1.995-4.039,6.111-6.603,10.618-6.603c4.496,0,8.612,2.563,10.607,6.603 l25.169,51.019c1.719,3.495,5.064,5.912,8.922,6.47l56.305,8.185c4.444,0.646,8.141,3.768,9.538,8.051 C359.865,302.649,358.698,307.351,355.484,310.499z"/> </g> </g> </g> </g>
</svg>